<?xml version="1.0" standalone="no"?>
<!DOCTYPE svg PUBLIC "-//W3C//DTD SVG 20010904//EN"
 "http://www.w3.org/TR/2001/REC-SVG-20010904/DTD/svg10.dtd">
<svg version="1.0" xmlns="http://www.w3.org/2000/svg"
 width="612.000000pt" height="200.000000pt" viewBox="0 0 612.000000 200.000000"
 preserveAspectRatio="xMidYMid meet">
<metadata>
Created by potrace 1.16, written by Peter Selinger 2001-2019
</metadata>
<g transform="translate(0.000000,200.000000) scale(0.100000,-0.100000)"
fill="#000000" stroke="none">
<path d="M0 1000 l0 -1000 1521 0 c1182 1 1519 4 1516 13 -2 7 -13 11 -23 10
-24 -3 -65 17 -58 29 3 4 14 4 24 -2 32 -17 60 -12 70 14 14 39 27 38 26 -2
-3 -70 35 -83 78 -28 14 19 26 39 26 44 0 5 9 12 20 15 12 3 18 1 14 -5 -8
-13 15 -28 45 -28 17 0 22 -4 17 -16 -3 -9 -2 -12 5 -8 6 3 9 14 6 23 -3 12 2
17 19 16 32 0 52 -21 36 -37 -9 -9 -12 -9 -12 0 0 7 -4 12 -9 12 -5 0 -4 -11
2 -25 l12 -25 1033 0 c585 0 1032 4 1032 9 0 5 11 12 25 15 21 5 24 11 19 31
-5 22 -3 25 19 25 13 0 41 11 61 25 20 13 43 22 51 19 8 -4 15 -1 15 5 0 6 19
11 46 11 25 0 43 4 40 9 -4 5 13 12 36 16 24 4 50 16 60 27 15 18 19 18 47 4
32 -17 49 -52 33 -68 -6 -6 -8 -17 -5 -24 6 -17 -9 -18 -25 -2 -8 8 -20 2 -49
-25 -20 -21 -46 -37 -56 -37 -9 0 -20 -7 -23 -15 -5 -12 -10 -13 -20 -4 -11 9
-14 8 -14 -5 0 -20 27 -21 46 -1 9 8 21 15 27 15 7 0 3 -7 -7 -15 -18 -13 3
-15 187 -15 l207 0 0 1000 0 1000 -3060 0 -3060 0 0 -1000z m3113 -222 c20 -2
27 -18 18 -45 -1 -2 -1 -6 -2 -10 -1 -5 -5 -16 -10 -25 -7 -13 -4 -17 19 -21
25 -4 25 -4 -5 -6 -18 0 -32 -4 -32 -8 4 -22 -2 -33 -13 -27 -6 4 -21 -5 -34
-21 -20 -25 -24 -27 -30 -12 -5 14 -9 15 -20 6 -31 -26 -131 21 -118 56 4 9 0
15 -10 15 -9 0 -16 4 -16 9 0 5 -3 16 -6 25 -4 11 2 17 23 22 15 4 34 11 41
17 9 7 12 4 12 -10 0 -11 11 -25 25 -31 14 -6 25 -19 25 -28 0 -11 5 -14 18
-9 9 4 27 10 40 12 12 3 22 12 22 20 0 8 4 12 8 9 4 -2 14 -1 22 5 13 7 13 9
0 10 -8 1 -23 1 -32 0 -10 -1 -24 11 -32 28 -15 28 -15 31 2 40 12 7 23 6 39
-5 13 -8 33 -15 46 -16z m2287 -8 c24 -23 31 -36 28 -55 -3 -16 -1 -25 7 -25
17 0 38 -27 27 -34 -6 -3 -15 1 -22 9 -15 18 -31 10 -24 -10 7 -17 -45 -68
-62 -61 -7 3 -15 0 -18 -7 -2 -7 -5 -5 -5 5 -1 11 -8 16 -21 13 -23 -4 -24 1
-7 31 7 13 21 20 35 19 12 -1 22 2 22 7 0 4 -7 8 -15 8 -8 0 -15 4 -15 9 0 5
8 7 19 4 21 -5 61 32 61 56 0 11 -3 12 -8 4 -4 -6 -19 -14 -33 -18 -22 -5 -28
-2 -42 27 -12 24 -13 34 -4 40 23 14 45 8 77 -22z m-2130 -24 c0 -6 4 -5 9 3
7 10 21 2 60 -38 28 -28 51 -48 51 -44 1 9 29 -38 30 -48 0 -4 -17 -10 -37
-14 -62 -11 -132 -39 -138 -54 -5 -12 -3 -12 12 0 16 12 17 12 6 -2 -7 -9 -9
-20 -5 -24 4 -5 1 -5 -6 -1 -7 4 -21 2 -30 -6 -15 -12 -16 -11 -3 5 9 12 10
17 2 17 -7 0 -9 5 -6 10 4 6 -4 5 -19 -1 -14 -7 -23 -16 -20 -21 3 -4 10 -6
15 -3 5 4 9 1 9 -5 0 -8 -7 -9 -17 -5 -10 4 -38 8 -63 10 -25 1 -39 1 -32 -2
6 -3 12 -13 12 -24 0 -16 -3 -17 -25 -7 -19 9 -22 14 -14 25 9 11 8 12 -5 7
-9 -3 -16 -14 -16 -23 0 -14 -2 -14 -10 -1 -8 12 -10 12 -16 -3 -3 -9 -11 -17
-16 -17 -6 0 -8 7 -4 15 3 9 0 15 -10 15 -9 0 -12 -5 -8 -12 4 -7 3 -8 -5 -4
-13 8 -71 17 -108 17 -12 -1 -25 4 -28 9 -3 6 -13 10 -21 10 -8 0 -12 -4 -9
-10 3 -6 -1 -7 -10 -3 -13 5 -14 7 -3 14 9 6 6 9 -12 10 -23 0 -23 1 -5 9 16
7 17 9 3 9 -24 1 -68 23 -68 33 0 5 5 6 10 3 6 -3 10 -1 10 4 0 6 -3 11 -7 11
-5 0 -8 11 -8 24 0 17 4 22 15 18 20 -7 115 -102 104 -103 -32 -4 54 -17 114
-18 89 -1 177 22 214 56 29 28 79 125 82 159 1 22 26 22 26 0z m1818 -80 c34
-66 84 -120 126 -136 14 -5 63 -10 110 -11 77 -2 88 0 126 25 23 15 56 48 73
74 18 25 42 56 53 68 12 13 19 26 15 29 -3 4 16 -4 42 -18 27 -13 54 -35 60
-47 7 -13 19 -25 27 -27 11 -3 10 0 -3 10 -10 8 -14 17 -10 20 5 3 14 -3 21
-13 10 -17 7 -22 -23 -43 l-35 -24 30 0 c16 0 27 4 24 9 -3 4 2 5 12 1 24 -9
7 -16 -116 -49 -88 -24 -125 -29 -225 -29 -129 0 -236 8 -254 19 -6 4 -29 8
-51 8 -47 0 -171 47 -130 49 15 0 19 3 10 6 -20 8 -53 43 -40 43 5 0 10 6 10
14 0 8 13 28 30 46 26 28 31 30 37 14 6 -15 7 -15 14 4 14 37 32 25 67 -42z"/>
</g>
</svg>
